<svg xmlns="http://www.w3.org/2000/svg" xmlns:xlink="http://www.w3.org/1999/xlink" width="375" height="812" viewBox="0 0 375 812">
    <defs>
        <path id="a" d="M0 0h375v812H0z"/>
    </defs>
    <g fill="none" fill-rule="evenodd">
        <mask id="b" fill="#fff">
            <use xlink:href="#a"/>
        </mask>
        <use fill="#FFF" xlink:href="#a"/>
        <g fill="gray" fill-rule="nonzero" mask="url(#b)" opacity=".3">
            <path d="M650.595-539.552a4.028 4.028 0 0 0-3.531 3.912 4.008 4.008 0 0 0 1.568 3.31 4.02 4.02 0 0 0 2.992.808c.41-.058.809-.18 1.182-.359l60.762 116.942-20.57 34.892a4.007 4.007 0 0 0-5.1 1.085 3.912 3.912 0 0 0-.8 1.983l-95.317-7.367a1.469 1.469 0 0 0 0-.173 6.62 6.62 0 0 0-2.591-5.445 6.667 6.667 0 0 0-9.342 1.21 6.573 6.573 0 0 0-1.382 3.897 6.635 6.635 0 0 0 2.073 4.962l-66.144 72.12-105.716 2.874a3.96 3.96 0 0 0-1.534-2.916 4.042 4.042 0 0 0-5.672.732 3.98 3.98 0 0 0-.843 2.37 3.988 3.988 0 0 0 1.575 3.297c.215.169.446.315.691.435l-50.488 116.216-74.139 15.653a6.634 6.634 0 0 0-2.425-3.76 6.64 6.64 0 0 0-4.975-1.347 6.723 6.723 0 0 0-4.47 2.557 6.71 6.71 0 0 0-1.382 3.94 6.683 6.683 0 0 0 2.619 5.528c.426.323.89.595 1.382.808l-28.205 68.533-81.352-47.967a4.05 4.05 0 0 0 .49-1.797 4.043 4.043 0 0 0-3.952-4.146 4.05 4.05 0 0 0-3.033 6.838c.74.778 1.76 1.23 2.832 1.254a3.972 3.972 0 0 0 1.762-.373L214.04-27.784l-3.386 8.244L46.117 55.033a4.015 4.015 0 0 0-1.126-1.382 4.042 4.042 0 0 0-2.992-.809 4.07 4.07 0 0 0-1.693.643L-35.878-52.082c.26-.199.493-.431.691-.691a3.988 3.988 0 0 0 .843-2.364 4.015 4.015 0 0 0-1.575-3.31 4.049 4.049 0 0 0-5.673.74 4.016 4.016 0 0 0-.836 2.363c-.008.315.02.63.083.94l-153.502 39.59a3.96 3.96 0 0 0-1.382-2.03 3.98 3.98 0 0 0-2.978-.816 3.994 3.994 0 0 0-2.687 1.54 4.009 4.009 0 0 0-.843 2.371 4.043 4.043 0 0 0 1.575 3.31 3.98 3.98 0 0 0 1.644.74l-36.198 219.53a3.973 3.973 0 0 0-3.69 1.534 3.8 3.8 0 0 0-.428.691l-151.415-64.842c.106-.289.166-.592.18-.899a2.895 2.895 0 1 0-5.79-.138 2.902 2.902 0 0 0 2.825 2.965c.155-.001.31-.013.463-.035l7.905 39.39-64.114-10.78c0-.131.042-.255.049-.394a4.043 4.043 0 1 0-6.26 3.276l-65.53 109.99a4 4 0 0 0-1.81-.498 4.049 4.049 0 1 0 2.556 7.083l113.627 119.016a3.988 3.988 0 0 0 .38 5.929l-88.76 120.84a6.439 6.439 0 0 0-9.012 8.92 6.439 6.439 0 0 0 7.97 2.205l18.233 37.967-46.84 108.138a2.998 2.998 0 0 0-.994-.2 3.11 3.11 0 1 0 3.033 3.179v-.436l109.896-19.467 88.013 59.293a3.912 3.912 0 0 0-.608 2.011 4.05 4.05 0 0 0 3.945 4.147 3.993 3.993 0 0 0 1.956-.477l30.042 51.968-39.052 73.985a6.909 6.909 0 0 0-9.49 8.607 6.91 6.91 0 0 0 6.263 4.523 6.833 6.833 0 0 0 3.627-.953l101.508 164.998a4.03 4.03 0 1 0 2.363-.691H-226l-16.548-164.155a4.043 4.043 0 0 0 3.455-3.898 3.995 3.995 0 0 0-.532-2.073l83.418-51.83a4.035 4.035 0 1 0 3.945-6.22l21.42-196.054 72.253 27.4a3.801 3.801 0 0 0-.222 1.161 4.05 4.05 0 1 0 4.146-3.953 4.532 4.532 0 0 0-.815.07l-28.046-123.521 51.054-57.117a5.92 5.92 0 0 0 9.514-6.144 5.922 5.922 0 0 0-5.575-4.304 6.155 6.155 0 0 0-1.382.152l-48.25-194.77 229.21-72.223a4.042 4.042 0 1 0 6.48-4.381L257.853 66.048c.67.505 1.482.788 2.321.809a4.05 4.05 0 0 0 3.031-6.84 4.042 4.042 0 0 0-2.837-1.253 3.972 3.972 0 0 0-1.762.374l-41.319-81.366 77.055-34.961c.268.538.653 1.01 1.126 1.382.85.656 1.927.947 2.992.808a4.028 4.028 0 0 0 3.524-3.911 3.995 3.995 0 0 0-1.576-3.303 3.904 3.904 0 0 0-.69-.436l52.94-121.827 57.003-12.039a3.98 3.98 0 0 0 1.438 2.198 4.035 4.035 0 0 0 5.665-.733c.532-.677.829-1.509.843-2.37a3.995 3.995 0 0 0-1.195-2.944l98.115-107.039 93.914-2.55a4.001 4.001 0 0 0 1.54 2.917 4.028 4.028 0 0 0 4.554.255l28.585 42.915-51.614 25.065a2.937 2.937 0 0 0-.767-.912 2.978 2.978 0 0 0-2.204-.594 2.95 2.95 0 0 0-1.983 1.133 3.041 3.041 0 0 0-.622 1.748 2.985 2.985 0 0 0 4.401 2.695l52.512 84.483a4 4 0 0 0-.926.85 3.98 3.98 0 0 0-.843 2.37 4.036 4.036 0 0 0 1.569 3.304 4.049 4.049 0 0 0 5.673-.726c.13-.167.245-.345.345-.532l38.652 19.053 8.374 56.404a3.973 3.973 0 0 0-2.432 1.486 3.995 3.995 0 0 0-.843 2.37 4.001 4.001 0 0 0 1.568 3.297c.7.541 1.561.833 2.446.83l2.391 64.96-51.068 29.77a4.146 4.146 0 0 0-.912-1.023 4.062 4.062 0 0 0-5.68.733 4.036 4.036 0 0 0-.836 2.37 4.043 4.043 0 0 0 1.576 3.303.69.69 0 0 0 .09.063l-20.97 31.243-69.725 21.879a3.96 3.96 0 0 0-1.312-1.832 4.062 4.062 0 0 0-5.673.726 4.03 4.03 0 0 0-.843 2.377 4.008 4.008 0 0 0 1.582 3.304c.798.618 1.8.912 2.805.822l8.914 68.609-25.655 38.264a5.771 5.771 0 0 0-6.73 9.35l-77.656 100.66a4.02 4.02 0 0 0-5.878 5.127 4.021 4.021 0 0 0 7.605-1.727 3.974 3.974 0 0 0-.276-1.513l118.733-50.226a3.15 3.15 0 0 0 5.32.539 3.159 3.159 0 0 0 .691-1.846 3.117 3.117 0 0 0-1.223-2.57 3.081 3.081 0 0 0-2.156-.636l-12.41-95.332 64.142-95.671 72.888-22.868a6.752 6.752 0 0 0 2.26 3.145 6.688 6.688 0 0 0 4.967 1.34 6.62 6.62 0 0 0 4.47-2.556 6.697 6.697 0 0 0 1.383-3.94 6.676 6.676 0 0 0-2.619-5.493 6.591 6.591 0 0 0-4.146-1.383L699.196 3.57 810.62-61.5c.245.389.553.734.912 1.022.85.658 1.926.95 2.992.809a4.036 4.036 0 0 0 3.524-3.911 3.995 3.995 0 0 0-1.576-3.304 4.007 4.007 0 0 0-2.992-.815 4.007 4.007 0 0 0-2.68 1.548 3.974 3.974 0 0 0-.346.518l-64.59-31.824 104.002-67.53c.171.244.376.462.608.65.662.508 1.5.732 2.328.621a3.13 3.13 0 0 0 2.073-1.195 3.11 3.11 0 0 0 .657-1.845 3.13 3.13 0 0 0-1.223-2.578 3.206 3.206 0 0 0-.954-.49l52.105-196.263c.453.1.92.123 1.381.07a4.007 4.007 0 0 0 2.688-1.549 4.036 4.036 0 0 0-.732-5.673 4.042 4.042 0 0 0-2.992-.809 4.007 4.007 0 0 0-2.688 1.548s-.048.083-.083.124l-129.532-84.02 5.445-66.542c.12.007.24.007.359 0a2.59 2.59 0 0 0 1.727-.995c.34-.435.53-.968.54-1.52a2.592 2.592 0 0 0-1.01-2.129 2.612 2.612 0 0 0-3.655.47 2.64 2.64 0 0 0-.532 1.528 2.592 2.592 0 0 0 1.01 2.121l.13.076-29.71 50.351-93.217-60.454c.35-.589.544-1.257.56-1.942a4.008 4.008 0 0 0-1.568-3.31 4.048 4.048 0 0 0-2.985-.809zM157.865-139.26a3.973 3.973 0 0 0 1.381-1.313l81.401 47.994-26.456 64.304-56.327-110.985zm56.374 111.835l2.55 5.024-5.687 2.585 3.137-7.61zm-3.8 8.293L179.346 56.38a6.121 6.121 0 0 0-6.972 1.97 6.047 6.047 0 0 0-1.243 3.33L46.545 56.844c0-.507-.098-1.01-.29-1.479L210.44-19.132zM-92.432 224.744a4.043 4.043 0 0 0 3.945 4.146c.302.008.603-.02.898-.082l8.983 36.329-61.605 19.391a7.09 7.09 0 0 0-6.219-4.775l3.87-89.147 161.993-40.151c.095.341.234.669.414.974l-105.024 71.014a4.028 4.028 0 0 0-7.276 2.301h.02zm-33.47 353.237l-5.237 47.919-41.119-15.598 9.812-36.356 33.13.207a4.022 4.022 0 0 0 3.414 3.828zm-46.687 32.197l-94.48-35.839c.114-.341.184-.697.206-1.057l104.071.691-9.797 36.205zm-49.23 171.163l-49.272-17.968 26.256-49.812a4.042 4.042 0 0 0 4.336-6.745 4.042 4.042 0 0 0-5.338.118l-50.218-50.206 24.149-79.742c.293.08.594.123.898.132a4.035 4.035 0 0 0 3.8-2.405l94.529 35.838-45.603 168.986a3.945 3.945 0 0 0-.573-.076 3.15 3.15 0 0 0-2.965 1.88zm-96.968-36.578a4.036 4.036 0 0 0-2.709-3.898l16.79-55.5 57.819 23.2a3.926 3.926 0 0 0 1.762 4.837l-26.305 49.833-47.558-17.353a4.05 4.05 0 0 0 .2-1.12zm72.729-37.587c-.286.313-.519.67-.691 1.057l-57.833-23.206 8.45-27.926 50.074 50.075zm-199.056-184.203a3.995 3.995 0 0 0-.332-1.673l129.319-61.663a8.071 8.071 0 0 0 3.144 3.33l-60.756 110.93a3.82 3.82 0 0 0-1.679-.421 4.035 4.035 0 0 0-3.226 1.5l-67.175-49.84c.439-.638.684-1.39.705-2.163zm298.345-243.255a7.103 7.103 0 0 0-7.206 6.676l-76.696-2.764-5.997-65.776a4.042 4.042 0 0 0 3.503-3.897 3.912 3.912 0 0 0-.09-.906l90.349-22.376-3.863 89.043zm-81.007 82.147a4.03 4.03 0 0 0 1.21 2.965l-77.173 85.166a8.167 8.167 0 0 0-2.763-1.575l49.057-165.434 26.505.96 6.73 74.048a4.036 4.036 0 0 0-3.566 3.87zm-29.62-79.23l19.229-64.864c.38.09.77.124 1.16.097l5.977 65.727-26.367-.96zm16.16-68.893a4.008 4.008 0 0 0 1.57 3.31c.35.265.743.47 1.16.609l-19.25 64.96-106.572-3.856a4.035 4.035 0 0 0-3.931-4.016 3.454 3.454 0 0 0-.691.056l-17.267-85.858 145.01 24.408c-.019.129-.03.258-.035.387h.007zm-123.12 65.375l106.483 3.856-49.01 165.358a7.523 7.523 0 0 0-1.906-.29 8.076 8.076 0 0 0-2.564.359l-55.566-165.855a4.036 4.036 0 0 0 2.563-3.428zm-8.187 301.124a4.05 4.05 0 0 0 1.07-2.619v-.097l96.554-4.098a4.029 4.029 0 0 0 2.674 3.456l-24.073 79.548-76.225-76.19zm97.583-7.256v.09l-96.554 4.098a4.022 4.022 0 0 0-1.92-3.096l60.761-110.95a7.959 7.959 0 0 0 11.173-4.299l108.687 37.794c-.108.343-.17.699-.187 1.058-.017.984.327 1.94.967 2.688l-76.004 69.873a4.035 4.035 0 0 0-6.91 2.765l-.013-.021zm82.257-76.708l-108.666-37.78c.24-.733.37-1.497.387-2.267a7.996 7.996 0 0 0-2.515-5.999l77.193-85.146c.692.59 1.565.924 2.474.947.31.002.62-.028.926-.09l32.778 127.958a4.063 4.063 0 0 0-2.577 2.37v.007zm-31.21-138.31l-6.73-73.999 76.64 2.765a7.084 7.084 0 0 0 1.907 4.913l-68.88 67.393a4.021 4.021 0 0 0-2.654-1.106c-.103.007-.193.027-.283.027v.007zm84.13-231.181a4.05 4.05 0 0 0 4.049-3.94 4.064 4.064 0 0 0-.94-2.674l53.445-48.485 103.16 75.388a4.064 4.064 0 0 0-.692 2.143c-.005.302.025.603.09.898l-161.862 40.082 2.75-63.412zM27.33 149.41a4.036 4.036 0 0 0-3.945-4.146 4.021 4.021 0 0 0-3.24 1.52L-82.96 71.46l23.955-21.734a3.026 3.026 0 0 0 2.038.871 2.985 2.985 0 0 0 2.46-1.182L151.397 189.7c-.138.22-.256.45-.352.691L27.17 150.4c.097-.32.15-.653.16-.988zm124.316 39.992L-54.257 49.117c.268-.445.418-.952.435-1.472a3.027 3.027 0 0 0-2.95-3.096 3.033 3.033 0 0 0-3.096 2.951c-.007.715.238 1.41.691 1.963l-24.1 21.768-113.053-82.637c.194-.29.352-.604.47-.933L38.592 55.93a3.995 3.995 0 0 0 1.458 4.153 4.049 4.049 0 0 0 5.672-.725 4.07 4.07 0 0 0 .816-2.143l124.564 4.838a6.089 6.089 0 0 0 2.384 4.92c.744.566 1.61.952 2.529 1.127l-20.66 119.74c-.138 0-.276-.041-.414-.048a4.028 4.028 0 0 0-3.296 1.61zM-42.228-54.066c.236.804.72 1.513 1.382 2.025.845.662 1.92.956 2.985.816a4.049 4.049 0 0 0 1.693-.65L40.016 53.72a4.146 4.146 0 0 0-.691.69c-.273.354-.483.751-.622 1.175L-195.77-12.692a3.884 3.884 0 0 0 .042-1.796l153.501-39.578zM-200.172-9.637c.33.038.664.038.995 0a4.049 4.049 0 0 0 2.64-1.486l113.018 82.59-53.39 48.429a4.062 4.062 0 0 0-2.763-1.203 4.042 4.042 0 0 0-4.146 3.953 4.022 4.022 0 0 0 3.69 4.105l-2.764 63.578-90.446 22.384a3.939 3.939 0 0 0-3.033-2.813l36.199-219.537zm-194.033 158.654a2.916 2.916 0 0 0 1.838-1.485l151.387 64.89a3.304 3.304 0 0 0-.172.58l-145.141-24.428-7.912-39.557zm7.6 39.854l17.275 85.996a4.036 4.036 0 0 0 .863 7.954c.41 0 .816-.059 1.21-.173l55.573 165.856a8.01 8.01 0 0 0-5.293 7.346 7.886 7.886 0 0 0 .69 3.455l-129.317 61.684a4.008 4.008 0 0 0-1.825-1.755l40.767-96.48a4.042 4.042 0 1 0 1.499-7.822 4.387 4.387 0 0 0-.74.055l-47.89-233.856a4.022 4.022 0 0 0 2.965-3.089l64.224 10.829zm-70.082-8.065c.556.31 1.18.481 1.817.498.245.002.49-.016.732-.055l47.918 233.828a4.042 4.042 0 0 0-1.672.87L-521.52 296.906a4.002 4.002 0 0 0-.691-6.157l65.523-109.942zm-40.573 373.175a6.365 6.365 0 0 0 1.002-10.746l88.773-120.902c.164.11.335.209.512.297l-40.766 96.473a4.145 4.145 0 0 0-1.313-.27 4.042 4.042 0 0 0-1.859 7.678l-28.225 65.112-18.124-37.642zm18.31 38.119l28.33-65.402c.427.168.88.263 1.34.283a4.056 4.056 0 0 0 3.226-1.507l67.175 49.833a4.036 4.036 0 0 0 6.073 5.238l76.37 76.266-8.498 28.085-30.782-12.35c.26-.678.405-1.395.429-2.121a6.6 6.6 0 0 0-9.794-6.072 6.6 6.6 0 0 0-3.397 5.754c-.001.38.029.759.09 1.133l-65.813 11.652-27.907-18.804a3.967 3.967 0 0 0 .6-2.004 4.022 4.022 0 0 0-5.623-3.808L-478.95 592.1zm-45.312 110.28a3.096 3.096 0 0 0-1.617-2.073l46.75-107.834 31.721 65.962a4.036 4.036 0 1 0 5.14 5.95l27.639 18.597-109.633 19.398zm110.483-19.17l65.447-11.596a6.585 6.585 0 0 0 12.499 1.299l30.795 12.35-16.79 55.512c-.296-.075-.6-.119-.905-.131a4.049 4.049 0 0 0-3.344 1.645l-87.702-59.08zm93.126 64.89a4.056 4.056 0 0 0 1.548-1.865l47.51 17.345-19.14 36.281-29.918-51.76zm94.287 302.617c-.486.07-.954.23-1.382.47l-101.507-165.019a6.876 6.876 0 0 0-.408-11.796l38.935-73.813 45.416 78.56a4.043 4.043 0 0 0 2.073 7.457h.325l16.548 164.141zm-13.439-170.437a4.021 4.021 0 0 0-3.227-1.769 3.903 3.903 0 0 0-1.955.477l-45.534-78.781 19.264-36.523 49.32 18.01a3.255 3.255 0 0 0-.145.828 3.144 3.144 0 0 0 5.666 1.963l60.112 39.874a3.946 3.946 0 0 0-.594 1.977c-.014.726.17 1.443.532 2.073l-83.439 51.871zm87.198-57.856h-.166a4.056 4.056 0 0 0-3.358 1.666l-60.113-39.874a3.11 3.11 0 0 0-1.713-4.561l45.603-168.959 41.166 15.611-21.42 196.117zm21.813-196.372l5.238-48.002a1.5 1.5 0 0 0 .172 0 4.014 4.014 0 0 0 2.598-.898l65.24 74.96c-.397.376-.712.83-.926 1.334l-72.322-27.394zm74.968 25.14a3.966 3.966 0 0 0-1.444.733l-65.24-74.96a4.03 4.03 0 0 0 0-5.818l38.694-43.254 27.99 123.3zm-66.911-80.273a4.014 4.014 0 0 0-6.585 2.916l-33.027-.214 47.675-176.781c.175.037.353.06.532.069.183.001.366-.015.546-.049l29.649 130.612-38.79 43.447zm92.476-110.66a5.88 5.88 0 0 0-2.473 9.972l-50.889 56.916-29.593-130.37a2.958 2.958 0 1 0-1.762-.034l-47.738 176.912-104.174-.69a4.03 4.03 0 0 0-.94-2.447l76.005-69.867a4.042 4.042 0 0 0 6.766-3.858 4.042 4.042 0 0 0-3.823-3.052 4.09 4.09 0 0 0-.926.09l-32.778-127.965a4 4 0 0 0 1.83-6.537l68.888-67.4a7.047 7.047 0 0 0 11.746-7.042l61.592-19.39 48.27 194.762zm-47.993-195.212l-8.982-36.315a4.022 4.022 0 0 0 2.3-5.978L20.09 151.74a4.014 4.014 0 0 0 3.137 1.645 4.028 4.028 0 0 0 3.87-2.64l123.859 39.999c-.092.32-.146.649-.159.981-.003.384.05.766.159 1.133l-229.209 72.189zM258.287 59.33a4.029 4.029 0 0 0-2.073 3.414 4.002 4.002 0 0 0 1.382 3.096L157.263 188.58a4.028 4.028 0 0 0-1.561-.691l20.666-119.727a6.28 6.28 0 0 0 1.651 0 6.073 6.073 0 0 0 4.07-2.336 6.034 6.034 0 0 0 1.271-3.593 6.068 6.068 0 0 0-2.383-5.004 5.631 5.631 0 0 0-1.258-.732l31.21-75.851 6.04-2.765 41.318 81.45zm-41.153-81.85l-2.701-5.314 26.553-64.538 53.39 31.478a4.05 4.05 0 0 0-.477 1.796c-.01.55.096 1.097.31 1.604L217.135-22.52zm82.223-40.233a3.993 3.993 0 0 0-1.955-.25 3.945 3.945 0 0 0-2.688 1.542c-.07.083-.117.18-.18.27l-53.438-31.513 28.226-68.588a6.604 6.604 0 0 0 3.24.415 6.674 6.674 0 0 0 5.846-6.51 6.974 6.974 0 0 0-.118-1.382l73.932-15.605-52.865 121.62zm116.77-137.833c-.048-.041-.075-.083-.124-.117a4.042 4.042 0 0 0-5.672.732 3.974 3.974 0 0 0-.843 2.364c-.002.257.022.514.069.767l-56.762 11.983 50.426-116.01a4.035 4.035 0 0 0 4.643-1.285 4.05 4.05 0 0 0 .836-2.37l105.35-2.861-97.922 106.797zm152.99 461.838a3.089 3.089 0 0 0-2.37 4.146l-118.684 50.165a4.001 4.001 0 0 0-1.057-1.334l77.663-100.667a5.778 5.778 0 0 0 6.91-9.253c-.056-.049-.118-.07-.18-.118l25.434-37.898 12.285 94.959zm-12.09-95.906l-8.859-68.215a3.994 3.994 0 0 0 2.508-1.5c.529-.679.824-1.51.843-2.37a3.988 3.988 0 0 0-.145-1.147l69.323-21.74-63.67 94.972zm143.026-126.88h-.442a6.723 6.723 0 0 0-4.464 2.572 6.683 6.683 0 0 0-1.112 5.95l-72.488 22.736 20.729-30.905a3.98 3.98 0 0 0 2.612.574 3.98 3.98 0 0 0 2.68-1.541 4.015 4.015 0 0 0 .85-2.364 4.002 4.002 0 0 0-.483-1.99l50.874-29.716 1.244 34.685zm-85.215-345.462c.31-.222.59-.484.83-.78.525-.678.818-1.507.835-2.364a3.995 3.995 0 0 0-1.575-3.31 4.049 4.049 0 0 0-5.673.732 4.036 4.036 0 0 0-.836 2.37v.035l-93.548 2.536 65.91-71.87c.097.09.187.18.29.262a6.632 6.632 0 0 0 4.927 1.334 6.626 6.626 0 0 0 4.415-2.543 6.538 6.538 0 0 0 1.334-3.38l95.35 7.367a3.988 3.988 0 0 0 1.576 3.303 4.049 4.049 0 0 0 5.673-.725 4.05 4.05 0 0 0 .836-2.37 4.015 4.015 0 0 0-1.576-3.31c-.083-.063-.18-.111-.27-.167l20.467-34.712 46.466 89.535c-.458.26-.86.61-1.181 1.03a3.988 3.988 0 0 0-.498 4.076l-115.14 55.914-28.612-42.963zm147.608-18.59a4.104 4.104 0 0 0-1.852.38l-46.618-89.727 33.96-57.614 25.185 16.33-10.675 130.631zM648.812-145.307c.211-.482.328-1 .346-1.527a3.995 3.995 0 0 0-1.569-3.303 4.007 4.007 0 0 0-2.992-.816 4.145 4.145 0 0 0-1.465.49L590.62-234.93a2.889 2.889 0 0 0 1.264-2.35 2.84 2.84 0 0 0-.234-1.209l51.676-25.058 26.056 39.114a7.442 7.442 0 0 0-1.7 1.57 7.644 7.644 0 0 0-1.603 4.505 7.644 7.644 0 0 0 2.999 6.295 7.634 7.634 0 0 0 5.659 1.548l12.513 84.186-38.438-18.977zm38.88 19.564l57.473 28.334-45.43 29.501a4.146 4.146 0 0 0-.801-.863 4.104 4.104 0 0 0-2.895-.816l-8.347-56.156zm122.602 60.44a3.822 3.822 0 0 0-.345 1.521 3.995 3.995 0 0 0 .47 1.99L699.174 3.168l-2.37-64.725H697a3.994 3.994 0 0 0 2.688-1.54c.529-.68.824-1.51.843-2.371a3.981 3.981 0 0 0-.58-2.142l45.602-29.613 64.742 31.92zm-64.79-32.334l-57.874-28.534-12.548-84.448a7.67 7.67 0 0 0 4.795-2.861 7.603 7.603 0 0 0 1.59-4.506 7.602 7.602 0 0 0-2.992-6.296 7.682 7.682 0 0 0-8.81-.373l-26.014-39.08 115.091-55.9a4.09 4.09 0 0 0 1.078 1.286c.846.66 1.922.952 2.985.808.482-.063.95-.21 1.382-.435l86.52 148.517a2.971 2.971 0 0 0-.773.69 3.103 3.103 0 0 0-.221 3.476l-104.21 67.656zM902.874-372.1a4.015 4.015 0 0 0 2.28 5.902L853.05-169.936a3.102 3.102 0 0 0-1.043-.049c-.356.045-.7.155-1.016.325l-86.52-148.482a4.07 4.07 0 0 0 1.022-.926 4.036 4.036 0 0 0 .836-2.37 3.995 3.995 0 0 0-3.538-4.098l10.71-130.46L902.874-372.1zM777.812-523.201c.244.118.506.198.774.235l-5.424 66.342-25.04-16.233 29.69-50.344zm-30.166 50.447l-33.857 57.442-60.658-116.714a4.146 4.146 0 0 0 1.181-1.037c.03-.042.058-.086.083-.131l93.25 60.44z"/>
        </g>
    </g>
</svg>
