<svg xmlns="http://www.w3.org/2000/svg" width="24" height="24" viewBox="0 0 24 24">
    <path fill="#8E8E93" fill-rule="nonzero" d="M12.884 14.168c2.694.239 5.213 1.566 7.248 3.816A10.046 10.046 0 0 0 22.1 12c0-5.569-4.53-10.1-10.1-10.1C6.43 1.9 1.9 6.43 1.9 12c0 2.238.731 4.308 1.968 5.984 2.035-2.25 4.554-3.577 7.248-3.816A4.97 4.97 0 0 1 7.06 9.277c0-2.74 2.215-4.97 4.939-4.97s4.94 2.23 4.94 4.97a4.97 4.97 0 0 1-4.056 4.891zm-7.742 5.24A10.063 10.063 0 0 0 12 22.1c2.645 0 5.055-1.021 6.858-2.69-1.916-2.187-4.325-3.381-6.858-3.381-2.533 0-4.942 1.194-6.858 3.38zM12 0c6.617 0 12 5.383 12 12s-5.383 12-12 12S0 18.617 0 12 5.383 0 12 0zm0 12.348c1.676 0 3.04-1.378 3.04-3.071 0-1.693-1.364-3.071-3.04-3.071S8.96 7.583 8.96 9.277c0 1.694 1.364 3.071 3.04 3.071z"/>
</svg>
